REM DIRINDEX 1\2\6,1\2\7,1\2\8,1\2\9,1\3\10,1\3\11,1\4\12,1\4\13,1\4\14,1\5\15,1\5\16,1\5\17
REM DIRNAME cjc029,folder01,folder02,folder03,folder04,folder05,folder06,folder07,folder08,folder09,folder10,folder11,folder12,folder13,folder14,folder15,folder16
TITLE ""
FILE "1400_3_sec14_1366_1383.mp3" MP3
  TRACK 01 AUDIO
    TITLE "0:"
    INDEX 01 00:00:00
  TRACK 02 AUDIO
    TITLE "17:cjc029_7173"
    INDEX 01 00:00:17
  TRACK 03 AUDIO
    TITLE "0:"
    INDEX 01 00:01:32
  TRACK 04 AUDIO
    TITLE "16:cjc029_7174"
    INDEX 01 00:01:38
  TRACK 05 AUDIO
    TITLE "0:"
    INDEX 01 00:03:10
  TRACK 06 AUDIO
    TITLE "17:cjc029_7175"
    INDEX 01 00:03:70
  TRACK 07 AUDIO
    TITLE "0:"
    INDEX 01 00:05:32
  TRACK 08 AUDIO
    TITLE "16:cjc029_7176"
    INDEX 01 00:05:40
  TRACK 09 AUDIO
    TITLE "0:"
    INDEX 01 00:07:21
  TRACK 10 AUDIO
    TITLE "17:cjc029_7177"
    INDEX 01 00:08:07
  TRACK 11 AUDIO
    TITLE "0:"
    INDEX 01 00:09:10
  TRACK 12 AUDIO
    TITLE "16:cjc029_7178"
    INDEX 01 00:09:14
  TRACK 13 AUDIO
    TITLE "0:"
    INDEX 01 00:10:29
  TRACK 14 AUDIO
    TITLE "17:cjc029_7179"
    INDEX 01 00:11:13
  TRACK 15 AUDIO
    TITLE "0:"
    INDEX 01 00:12:44
  TRACK 16 AUDIO
    TITLE "16:cjc029_7180"
    INDEX 01 00:12:50
  TRACK 17 AUDIO
    TITLE "0:"
    INDEX 01 00:14:11
  TRACK 18 AUDIO
    TITLE "17:cjc029_7181"
    INDEX 01 00:14:68
  TRACK 19 AUDIO
    TITLE "0:"
    INDEX 01 00:16:04
  TRACK 20 AUDIO
    TITLE "16:cjc029_7182"
    INDEX 01 00:16:10
  TRACK 21 AUDIO
    TITLE "0:"
    INDEX 01 00:17:27
  TRACK 22 AUDIO
    TITLE "17:cjc029_7183"
    INDEX 01 00:18:13
  TRACK 23 AUDIO
    TITLE "0:"
    INDEX 01 00:19:32
  TRACK 24 AUDIO
    TITLE "16:cjc029_7184"
    INDEX 01 00:19:36
  TRACK 25 AUDIO
    TITLE "0:"
    INDEX 01 00:20:37
  TRACK 26 AUDIO
    TITLE "17:cjc029_7185"
    INDEX 01 00:21:21
  TRACK 27 AUDIO
    TITLE "0:"
    INDEX 01 00:22:56
  TRACK 28 AUDIO
    TITLE "16:cjc029_7186"
    INDEX 01 00:22:64
  TRACK 29 AUDIO
    TITLE "0:"
    INDEX 01 00:24:10
  TRACK 30 AUDIO
    TITLE "17:cjc029_7187"
    INDEX 01 00:24:72
  TRACK 31 AUDIO
    TITLE "0:"
    INDEX 01 00:25:74
  TRACK 32 AUDIO
    TITLE "16:cjc029_7188"
    INDEX 01 00:26:15
  TRACK 33 AUDIO
    TITLE "0:"
    INDEX 01 00:27:14
  TRACK 34 AUDIO
    TITLE "17:cjc029_7189"
    INDEX 01 00:27:73
  TRACK 35 AUDIO
    TITLE "0:"
    INDEX 01 00:29:11
  TRACK 36 AUDIO
    TITLE "16:cjc029_7190"
    INDEX 01 00:29:17
  TRACK 37 AUDIO
    TITLE "0:"
    INDEX 01 00:30:50
  TRACK 38 AUDIO
    TITLE "17:cjc029_7191"
    INDEX 01 00:31:35
  TRACK 39 AUDIO
    TITLE "0:"
    INDEX 01 00:32:35
  TRACK 40 AUDIO
    TITLE "16:cjc029_7192"
    INDEX 01 00:32:39
  TRACK 41 AUDIO
    TITLE "0:"
    INDEX 01 00:33:62
  TRACK 42 AUDIO
    TITLE "17:cjc029_7193"
    INDEX 01 00:34:49
  TRACK 43 AUDIO
    TITLE "0:"
    INDEX 01 00:37:30
  TRACK 44 AUDIO
    TITLE "16:cjc029_7194"
    INDEX 01 00:37:38
  TRACK 45 AUDIO
    TITLE "0:"
    INDEX 01 00:38:65
  TRACK 46 AUDIO
    TITLE "17:cjc029_7195"
    INDEX 01 00:39:51
  TRACK 47 AUDIO
    TITLE "0:"
    INDEX 01 00:41:02
  TRACK 48 AUDIO
    TITLE "16:cjc029_7196"
    INDEX 01 00:41:10
  TRACK 49 AUDIO
    TITLE "0:"
    INDEX 01 00:42:31
  TRACK 50 AUDIO
    TITLE "17:cjc029_7197"
    INDEX 01 00:43:17
  TRACK 51 AUDIO
    TITLE "0:"
    INDEX 01 00:44:50
  TRACK 52 AUDIO
    TITLE "16:cjc029_7198"
    INDEX 01 00:44:56
  TRACK 53 AUDIO
    TITLE "0:"
    INDEX 01 00:45:65
  TRACK 54 AUDIO
    TITLE "17:cjc029_7199"
    INDEX 01 00:46:51
  TRACK 55 AUDIO
    TITLE "0:"
    INDEX 01 00:48:00
  TRACK 56 AUDIO
    TITLE "16:cjc029_7200"
    INDEX 01 00:48:06
  TRACK 57 AUDIO
    TITLE "0:"
    INDEX 01 00:49:31
  TRACK 58 AUDIO
    TITLE "17:cjc029_7201"
    INDEX 01 00:50:15
  TRACK 59 AUDIO
    TITLE "0:"
    INDEX 01 00:54:50
  TRACK 60 AUDIO
    TITLE "16:cjc029_7202"
    INDEX 01 00:54:58
  TRACK 61 AUDIO
    TITLE "0:"
    INDEX 01 00:56:04
  TRACK 62 AUDIO
    TITLE "17:cjc029_7203"
    INDEX 01 00:56:65
  TRACK 63 AUDIO
    TITLE "0:"
    INDEX 01 00:58:11
  TRACK 64 AUDIO
    TITLE "16:cjc029_7204"
    INDEX 01 00:58:22
  TRACK 65 AUDIO
    TITLE "0:"
    INDEX 01 00:59:32
  TRACK 66 AUDIO
    TITLE "17:cjc029_7205"
    INDEX 01 01:00:19
  TRACK 67 AUDIO
    TITLE "0:"
    INDEX 01 01:01:29
  TRACK 68 AUDIO
    TITLE "16:cjc029_7206"
    INDEX 01 01:01:36
  TRACK 69 AUDIO
    TITLE "0:"
    INDEX 01 01:02:59
  TRACK 70 AUDIO
    TITLE "17:cjc029_7207"
    INDEX 01 01:03:41
  TRACK 71 AUDIO
    TITLE "0:"
    INDEX 01 01:05:38
  TRACK 72 AUDIO
    TITLE "16:cjc029_7208"
    INDEX 01 01:05:42
  TRACK 73 AUDIO
    TITLE "0:"
    INDEX 01 01:06:59
